#!OML:ASF H:\Dans Jumps\Project 1\Capture day 1\Session 1\subject.ASF
:FULLY-SPECIFIED
:DEGREES
154
root 0.546994 17.5482 -13.8016 5.1533 -1.51267 -1.97759
lowerback -2.50989 -0.330923 0.493201
upperback 2.50793 -0.527997 1.7585
thorax 4.00289 -0.276252 1.50493
lowerneck -13.7946 0.275925 -2.17354
upperneck 29.7374 0.72534 0.809392
head 12.0392 0.178521 0.782182
rclavicle 4.91992e-015 -8.15017e-015
rhumerus -27.6101 -17.7193 -78.0498
rradius 24.1321
rwrist 31.5643
rhand -19.5866 -26.3465
rfingers 7.12502
rthumb 6.73892 -56.2193
lclavicle 4.91992e-015 -8.15017e-015
lhumerus -24.5797 3.43393 86.2977
lradius 16.7199
lwrist 2.23523
lhand -25.5352 -4.01025
lfingers 7.12502
lthumb 0.994674 25.9672
rfemur -11.1116 -2.31709 20.1593
rtibia 20.0663
rfoot -13.4201 -2.0596
rtoes 10.3792
lfemur -10.1651 6.03336 -17.5059
ltibia 18.859
lfoot -11.3443 4.69894
ltoes -0.655532
155
root 0.546843 17.5475 -13.8034 5.1552 -1.49676 -1.98301
lowerback -2.48457 -0.336189 0.494913
upperback 2.51144 -0.534923 1.76286
thorax 3.99237 -0.279715 1.50816
lowerneck -13.7849 0.280569 -2.17601
upperneck 29.7174 0.735157 0.800632
head 12.0291 0.181704 0.780505
rclavicle -6.65929e-015 -1.37161e-014
rhumerus -27.6406 -17.713 -78.0294
rradius 24.1514
rwrist 31.5354
rhand -19.5907 -26.3325
rfingers 7.12502
rthumb 6.73493 -56.2054
lclavicle -6.65929e-015 -1.37161e-014
lhumerus -24.6107 3.40571 86.2985
lradius 16.7503
lwrist 2.27845
lhand -25.5185 -4.00162
lfingers 7.12502
lthumb 1.01083 25.9757
rfemur -11.1301 -2.31572 20.1667
rtibia 20.0899
rfoot -13.4251 -2.07381
rtoes 10.3929
lfemur -10.2006 6.01578 -17.4999
ltibia 18.9055
lfoot -11.3531 4.70102
ltoes -0.659934
156
root 0.546601 17.5468 -13.8054 5.15925 -1.481 -1.99111
lowerback -2.45946 -0.341568 0.497677
upperback 2.51499 -0.542091 1.76841
thorax 3.98203 -0.283288 1.51202
lowerneck -13.773 0.284028 -2.1826
upperneck 29.6936 0.742853 0.796512
head 12.017 0.184106 0.780938
rclavicle -9.54166e-015 9.93923e-015
rhumerus -27.6751 -17.711 -78.0041
rradius 24.171
rwrist 31.5026
rhand -19.5881 -26.3253
rfingers 7.12502
rthumb 6.73749 -56.1981
lclavicle -9.54166e-015 9.93923e-015
lhumerus -24.6475 3.3706 86.2998
lradius 16.7867
lwrist 2.33455
lhand -25.507 -4.00207
lfingers 7.12502
lthumb 1.02193 25.9752
rfemur -11.1518 -2.31176 20.1775
rtibia 20.1138
rfoot -13.4291 -2.09117
rtoes 10.3945
lfemur -10.241 5.99761 -17.4909
ltibia 18.9555
lfoot -11.3627 4.70339
ltoes -0.665005
157
root 0.546257 17.5462 -13.8075 5.16576 -1.46569 -2.00229
lowerback -2.43495 -0.346258 0.502055
upperback 2.5189 -0.548457 1.77491
thorax 3.97237 -0.286432 1.51601
lowerneck -13.7638 0.286671 -2.18874
upperneck 29.6688 0.74887 0.79381
head 12.0051 0.186001 0.781594
rclavicle -8.44835e-016 -2.18663e-015
rhumerus -27.7141 -17.7188 -77.972
rradius 24.1878
rwrist 31.4706
rhand -19.5763 -26.3276
rfingers 7.12502
rthumb 6.74881 -56.2
lclavicle -8.44835e-016 -2.18663e-015
lhumerus -24.6891 3.32837 86.3012
lradius 16.8286
lwrist 2.40278
lhand -25.5012 -4.01061
lfingers 7.12502
lthumb 1.02753 25.9667
rfemur -11.177 -2.30487 20.1924
rtibia 20.138
rfoot -13.4321 -2.11108
rtoes 10.3888
lfemur -10.2862 5.98124 -17.4783
ltibia 19.0081
lfoot -11.3736 4.70231
ltoes -0.664231
